<svg xmlns="http://www.w3.org/2000/svg" version="1.1" xmlns:xlink="http://www.w3.org/1999/xlink" viewBox="0 0 700 700" style="overflow: hidden; display: block;" width="700" height="700"><defs><linearGradient id="two-17" x1="350" y1="-350" x2="350" y2="350" spreadMethod="pad" gradientUnits="userSpaceOnUse"><stop offset="0%" stop-color="hsl(1.4, 100%, 67%)" stop-opacity="1"></stop><stop offset="100%" stop-color="hsl(167, 52%, 78%)" stop-opacity="1"></stop></linearGradient></defs><g id="two-0" transform="matrix(1 0 0 1 0 0)" opacity="1"><path transform="matrix(1 0 0 1 350 350)" id="two-261" d="M 298.937414 123.823931 C 284.907182 162.743703 231.18295 173.473862 197.510384 197.510384 C 168.098407 218.505565 140.302234 244.478049 107.855649 260.386572 C 74.402655 276.788536 37.213818 291.957432 0 293.762692 C -37.730103 295.592997 -78.67271 288.233849 -112.113921 270.666947 C -144.874723 253.457467 -162.986308 214.620113 -193.070025 193.070024 C -229.692086 166.836273 -292.455311 169.596634 -314.217838 130.153289 C -335.039229 92.415699 -309.194582 42.700045 -303.332654 0 C -298.01321 -38.748433 -296.158255 -80.338887 -281.016677 -116.400919 C -265.902349 -152.398053 -244.195632 -189.331067 -213.66688 -213.66688 C -183.825472 -237.454779 -141.784141 -242.58547 -106.30795 -256.650095 C -71.273076 -270.539758 -36.571761 -289.277505 -0.000001 -298.380881 C 41.816713 -308.789822 87.763533 -322.967535 129.738556 -313.216583 C 172.424887 -303.300392 212.736488 -274.564108 241.514125 -241.514126 C 269.861081 -208.958765 292.023444 -165.695088 296.328112 -122.743124 C 300.479129 -81.324303 266.877572 -41.62464 267.25047 -0.000001 C 267.628316 42.17694 313.241389 84.144801 298.937414 123.823931 Z " fill="hsl(335, 77%, 50%)" stroke="undefined" stroke-width="1" stroke-opacity="1" fill-opacity="1" visibility="visible" stroke-linecap="butt" stroke-linejoin="miter" stroke-miterlimit="4"></path></g></svg>