<svg id="visual" viewBox="0 0 900 600" width="900" height="600" xmlns="http://www.w3.org/2000/svg" xmlns:xlink="http://www.w3.org/1999/xlink" version="1.1"><g transform="translate(453.35672289420125 278.7819323402234)"><path d="M192.1 -244.5C240.7 -229 266.4 -161.9 280.3 -96.4C294.2 -30.9 296.4 33.1 284.5 99.4C272.6 165.8 246.5 234.6 196.7 267.1C146.9 299.6 73.5 295.8 16.8 272.6C-39.8 249.4 -79.5 206.8 -129 174.2C-178.5 141.6 -237.6 119 -269.4 74.9C-301.2 30.7 -305.6 -35 -290.8 -98.8C-276.1 -162.6 -242.1 -224.5 -190.4 -239C-138.7 -253.4 -69.4 -220.5 1.2 -222.1C71.7 -223.7 143.4 -259.9 192.1 -244.5" fill="#f97812"></path></g></svg>