<svg id="visual" viewBox="0 0 900 600" width="900" height="600" xmlns="http://www.w3.org/2000/svg" xmlns:xlink="http://www.w3.org/1999/xlink" version="1.1"><g transform="translate(451.96310878102065 252.20745343564852)"><path d="M139 -192.3C179.3 -162.1 210.4 -120.3 241.5 -68.2C272.6 -16.1 303.7 46.4 295 102.9C286.3 159.4 237.8 209.9 182 254.3C126.2 298.7 63.1 336.8 5.4 329.4C-52.3 322 -104.6 269 -154.9 222.8C-205.1 176.7 -253.3 137.3 -279.5 84.3C-305.6 31.3 -309.7 -35.3 -277.8 -76.9C-246 -118.5 -178.1 -135.1 -125.8 -161.5C-73.5 -187.8 -36.7 -223.9 6.3 -232.6C49.4 -241.3 98.7 -222.6 139 -192.3" fill="#f97812"></path></g></svg>