<svg id="visual" viewBox="0 0 900 600" width="900" height="600" xmlns="http://www.w3.org/2000/svg" xmlns:xlink="http://www.w3.org/1999/xlink" version="1.1"><g transform="translate(456.188084987467 280.6349171470341)"><path d="M129.7 -165.2C186 -137.7 261.8 -123.7 293.2 -82.2C324.6 -40.8 311.6 28.1 289.3 93.1C266.9 158 235.1 219 185.4 250C135.6 280.9 67.8 282 -2.3 285.1C-72.3 288.2 -144.6 293.4 -194.2 262.3C-243.8 231.3 -270.8 164 -294 94.9C-317.3 25.9 -337 -45 -314 -97.8C-291.1 -150.6 -225.5 -185.3 -166 -211.8C-106.6 -238.4 -53.3 -256.7 -8.3 -245.3C36.7 -233.9 73.5 -192.8 129.7 -165.2" fill="#f97812"></path></g></svg>